<?xml version="1.0" encoding="UTF-8" standalone="no"?>
<!-- Created with Inkscape (http://www.inkscape.org/) -->

<svg
   xmlns:dc="http://purl.org/dc/elements/1.1/"
   xmlns:cc="http://creativecommons.org/ns#"
   xmlns:rdf="http://www.w3.org/1999/02/22-rdf-syntax-ns#"
   xmlns:svg="http://www.w3.org/2000/svg"
   xmlns="http://www.w3.org/2000/svg"
   xmlns:sodipodi="http://sodipodi.sourceforge.net/DTD/sodipodi-0.dtd"
   xmlns:inkscape="http://www.inkscape.org/namespaces/inkscape"
   version="1.1"
   id="svg2"
   xml:space="preserve"
   width="480"
   height="336"
   viewBox="0 0 480 336"
   sodipodi:docname="orbit.svg"
   inkscape:export-filename="/home/pablo/research/halo/seccions.png"
   inkscape:export-xdpi="96"
   inkscape:export-ydpi="96"
   inkscape:version="0.92.5 (2060ec1f9f, 2020-04-08)"><metadata
     id="metadata8"><rdf:RDF><cc:Work
         rdf:about=""><dc:format>image/svg+xml</dc:format><dc:type
           rdf:resource="http://purl.org/dc/dcmitype/StillImage" /><dc:title></dc:title></cc:Work></rdf:RDF></metadata><defs
     id="defs6" /><sodipodi:namedview
     pagecolor="#ffffff"
     bordercolor="#666666"
     borderopacity="1"
     objecttolerance="10"
     gridtolerance="10"
     guidetolerance="10"
     inkscape:pageopacity="0"
     inkscape:pageshadow="2"
     inkscape:window-width="2352"
     inkscape:window-height="1536"
     id="namedview4"
     showgrid="false"
     inkscape:zoom="2.79"
     inkscape:cx="282.65233"
     inkscape:cy="168"
     inkscape:window-x="144"
     inkscape:window-y="54"
     inkscape:window-maximized="1"
     inkscape:current-layer="g10" /><g
     id="g10"
     inkscape:groupmode="layer"
     inkscape:label="ink_ext_XXXXXX"
     transform="matrix(1.3333333,0,0,-1.3333333,0,336)"><g
       id="g12"
       transform="scale(0.1)"><path
         d="M 485.5,624.5 1448,1178"
         style="fill:none;stroke:#000000;stroke-width:2.5;stroke-linecap:butt;stroke-linejoin:miter;stroke-miterlimit:3.79999995;stroke-dasharray:none;stroke-opacity:1"
         id="path14"
         inkscape:connector-curvature="0" /><path
         d="M 3114.5,858.5 1448,1178"
         style="fill:none;stroke:#000000;stroke-width:2.5;stroke-linecap:butt;stroke-linejoin:miter;stroke-miterlimit:3.79999995;stroke-dasharray:none;stroke-opacity:1"
         id="path16"
         inkscape:connector-curvature="0" /><path
         d="m 485.5,624.5 v 1107"
         style="fill:none;stroke:#000000;stroke-width:2.5;stroke-linecap:butt;stroke-linejoin:miter;stroke-miterlimit:3.79999995;stroke-dasharray:none;stroke-opacity:1"
         id="path18"
         inkscape:connector-curvature="0" /><path
         d="m 485.5,624.5 19.5,11"
         style="fill:none;stroke:#000000;stroke-width:2.5;stroke-linecap:butt;stroke-linejoin:miter;stroke-miterlimit:3.79999995;stroke-dasharray:none;stroke-opacity:1"
         id="path20"
         inkscape:connector-curvature="0" /><path
         d="m 1448,1178 -19.5,-11"
         style="fill:none;stroke:#000000;stroke-width:2.5;stroke-linecap:butt;stroke-linejoin:miter;stroke-miterlimit:3.79999995;stroke-dasharray:none;stroke-opacity:1"
         id="path22"
         inkscape:connector-curvature="0" /><g
         id="g24"
         transform="scale(10)"><text
   transform="matrix(1,0,0,-1,36.0281,57.6148)"
   style="font-variant:normal;font-weight:normal;font-size:7px;font-family:Helvetica;-inkscape-font-specification:Helvetica;writing-mode:lr-tb;fill:#000000;fill-opacity:1;fill-rule:nonzero;stroke:none"
   id="text28"><tspan
     x="0 2.3310001 6.223 8.1689997 12.061 15.953"
     y="0"
     sodipodi:role="line"
     id="tspan26">-0.992</tspan></text>




</g><path
         d="M 723.5,578.5 743,590"
         style="fill:none;stroke:#000000;stroke-width:2.5;stroke-linecap:butt;stroke-linejoin:miter;stroke-miterlimit:3.79999995;stroke-dasharray:none;stroke-opacity:1"
         id="path30"
         inkscape:connector-curvature="0" /><path
         d="m 1686,1132.5 -19,-11"
         style="fill:none;stroke:#000000;stroke-width:2.5;stroke-linecap:butt;stroke-linejoin:miter;stroke-miterlimit:3.79999995;stroke-dasharray:none;stroke-opacity:1"
         id="path32"
         inkscape:connector-curvature="0" /><g
         id="g34"
         transform="scale(10)"><text
   transform="matrix(1,0,0,-1,57.9324,53.0648)"
   style="font-variant:normal;font-weight:normal;font-size:7px;font-family:Helvetica;-inkscape-font-specification:Helvetica;writing-mode:lr-tb;fill:#000000;fill-opacity:1;fill-rule:nonzero;stroke:none"
   id="text38"><tspan
     x="0 2.3310001 6.223 8.1689997 12.061 15.953 19.844999"
     y="0"
     sodipodi:role="line"
     id="tspan36">-0.9915</tspan></text>




</g><path
         d="m 962,533 19,11"
         style="fill:none;stroke:#000000;stroke-width:2.5;stroke-linecap:butt;stroke-linejoin:miter;stroke-miterlimit:3.79999995;stroke-dasharray:none;stroke-opacity:1"
         id="path40"
         inkscape:connector-curvature="0" /><path
         d="m 1924,1087 -19.5,-11.5"
         style="fill:none;stroke:#000000;stroke-width:2.5;stroke-linecap:butt;stroke-linejoin:miter;stroke-miterlimit:3.79999995;stroke-dasharray:none;stroke-opacity:1"
         id="path42"
         inkscape:connector-curvature="0" /><g
         id="g44"
         transform="scale(10)"><text
   transform="matrix(1,0,0,-1,83.6781,48.5148)"
   style="font-variant:normal;font-weight:normal;font-size:7px;font-family:Helvetica;-inkscape-font-specification:Helvetica;writing-mode:lr-tb;fill:#000000;fill-opacity:1;fill-rule:nonzero;stroke:none"
   id="text48"><tspan
     x="0 2.3310001 6.223 8.1689997 12.061 15.953"
     y="0"
     sodipodi:role="line"
     id="tspan46">-0.991</tspan></text>




</g><path
         d="m 1200,487.5 19,11"
         style="fill:none;stroke:#000000;stroke-width:2.5;stroke-linecap:butt;stroke-linejoin:miter;stroke-miterlimit:3.79999995;stroke-dasharray:none;stroke-opacity:1"
         id="path50"
         inkscape:connector-curvature="0" /><path
         d="m 2162,1041 -19.5,-11"
         style="fill:none;stroke:#000000;stroke-width:2.5;stroke-linecap:butt;stroke-linejoin:miter;stroke-miterlimit:3.79999995;stroke-dasharray:none;stroke-opacity:1"
         id="path52"
         inkscape:connector-curvature="0" /><g
         id="g54"
         transform="scale(10)"><text
   transform="matrix(1,0,0,-1,105.532,43.9148)"
   style="font-variant:normal;font-weight:normal;font-size:7px;font-family:Helvetica;-inkscape-font-specification:Helvetica;writing-mode:lr-tb;fill:#000000;fill-opacity:1;fill-rule:nonzero;stroke:none"
   id="text58"><tspan
     x="0 2.3310001 6.223 8.1689997 12.061 15.953 19.844999"
     y="0"
     sodipodi:role="line"
     id="tspan56">-0.9905</tspan></text>




</g><path
         d="m 1438,441.5 19.5,11.5"
         style="fill:none;stroke:#000000;stroke-width:2.5;stroke-linecap:butt;stroke-linejoin:miter;stroke-miterlimit:3.79999995;stroke-dasharray:none;stroke-opacity:1"
         id="path60"
         inkscape:connector-curvature="0" /><path
         d="m 2400,995.5 -19,-11"
         style="fill:none;stroke:#000000;stroke-width:2.5;stroke-linecap:butt;stroke-linejoin:miter;stroke-miterlimit:3.79999995;stroke-dasharray:none;stroke-opacity:1"
         id="path62"
         inkscape:connector-curvature="0" /><g
         id="g64"
         transform="scale(10)"><text
   transform="matrix(1,0,0,-1,133.274,39.3648)"
   style="font-variant:normal;font-weight:normal;font-size:7px;font-family:Helvetica;-inkscape-font-specification:Helvetica;writing-mode:lr-tb;fill:#000000;fill-opacity:1;fill-rule:nonzero;stroke:none"
   id="text68"><tspan
     x="0 2.3310001 6.223 8.1689997 12.061"
     y="0"
     sodipodi:role="line"
     id="tspan66">-0.99</tspan></text>




</g><path
         d="m 1676,396 19.5,11"
         style="fill:none;stroke:#000000;stroke-width:2.5;stroke-linecap:butt;stroke-linejoin:miter;stroke-miterlimit:3.79999995;stroke-dasharray:none;stroke-opacity:1"
         id="path70"
         inkscape:connector-curvature="0" /><path
         d="m 2638,950 -19,-11.5"
         style="fill:none;stroke:#000000;stroke-width:2.5;stroke-linecap:butt;stroke-linejoin:miter;stroke-miterlimit:3.79999995;stroke-dasharray:none;stroke-opacity:1"
         id="path72"
         inkscape:connector-curvature="0" /><g
         id="g74"
         transform="scale(10)"><text
   transform="matrix(1,0,0,-1,153.182,34.8148)"
   style="font-variant:normal;font-weight:normal;font-size:7px;font-family:Helvetica;-inkscape-font-specification:Helvetica;writing-mode:lr-tb;fill:#000000;fill-opacity:1;fill-rule:nonzero;stroke:none"
   id="text78"><tspan
     x="0 2.3310001 6.223 8.1689997 12.061 15.953 19.844999"
     y="0"
     sodipodi:role="line"
     id="tspan76">-0.9895</tspan></text>




</g><path
         d="m 1914,350.5 19,11"
         style="fill:none;stroke:#000000;stroke-width:2.5;stroke-linecap:butt;stroke-linejoin:miter;stroke-miterlimit:3.79999995;stroke-dasharray:none;stroke-opacity:1"
         id="path80"
         inkscape:connector-curvature="0" /><path
         d="M 2876.5,904 2857,893"
         style="fill:none;stroke:#000000;stroke-width:2.5;stroke-linecap:butt;stroke-linejoin:miter;stroke-miterlimit:3.79999995;stroke-dasharray:none;stroke-opacity:1"
         id="path82"
         inkscape:connector-curvature="0" /><g
         id="g84"
         transform="scale(10)"><text
   transform="matrix(1,0,0,-1,178.878,30.2148)"
   style="font-variant:normal;font-weight:normal;font-size:7px;font-family:Helvetica;-inkscape-font-specification:Helvetica;writing-mode:lr-tb;fill:#000000;fill-opacity:1;fill-rule:nonzero;stroke:none"
   id="text88"><tspan
     x="0 2.3310001 6.223 8.1689997 12.061 15.953"
     y="0"
     sodipodi:role="line"
     id="tspan86">-0.989</tspan></text>




</g><path
         d="m 2152,304.5 19.5,11.5"
         style="fill:none;stroke:#000000;stroke-width:2.5;stroke-linecap:butt;stroke-linejoin:miter;stroke-miterlimit:3.79999995;stroke-dasharray:none;stroke-opacity:1"
         id="path90"
         inkscape:connector-curvature="0" /><path
         d="m 3114.5,858.5 -19.5,-11"
         style="fill:none;stroke:#000000;stroke-width:2.5;stroke-linecap:butt;stroke-linejoin:miter;stroke-miterlimit:3.79999995;stroke-dasharray:none;stroke-opacity:1"
         id="path92"
         inkscape:connector-curvature="0" /><g
         id="g94"
         transform="scale(10)"><text
   transform="matrix(1,0,0,-1,200.782,25.6648)"
   style="font-variant:normal;font-weight:normal;font-size:7px;font-family:Helvetica;-inkscape-font-specification:Helvetica;writing-mode:lr-tb;fill:#000000;fill-opacity:1;fill-rule:nonzero;stroke:none"
   id="text98"><tspan
     x="0 2.3310001 6.223 8.1689997 12.061 15.953 19.844999"
     y="0"
     sodipodi:role="line"
     id="tspan96">-0.9885</tspan></text>




</g><path
         d="m 2152,304.5 -33.5,6.5"
         style="fill:none;stroke:#000000;stroke-width:2.5;stroke-linecap:butt;stroke-linejoin:miter;stroke-miterlimit:3.79999995;stroke-dasharray:none;stroke-opacity:1"
         id="path100"
         inkscape:connector-curvature="0" /><path
         d="M 485.5,624.5 519,618"
         style="fill:none;stroke:#000000;stroke-width:2.5;stroke-linecap:butt;stroke-linejoin:miter;stroke-miterlimit:3.79999995;stroke-dasharray:none;stroke-opacity:1"
         id="path102"
         inkscape:connector-curvature="0" /><g
         id="g104"
         transform="scale(10)"><text
   transform="matrix(1,0,0,-1,219.65,26.7148)"
   style="font-variant:normal;font-weight:normal;font-size:7px;font-family:Helvetica;-inkscape-font-specification:Helvetica;writing-mode:lr-tb;fill:#000000;fill-opacity:1;fill-rule:nonzero;stroke:none"
   id="text108"><tspan
     x="0 2.3310001 6.223 8.1689997 12.061 15.953"
     y="0"
     sodipodi:role="line"
     id="tspan106">-0.005</tspan></text>




</g><path
         d="m 2248.5,360 -33.5,6.5"
         style="fill:none;stroke:#000000;stroke-width:2.5;stroke-linecap:butt;stroke-linejoin:miter;stroke-miterlimit:3.79999995;stroke-dasharray:none;stroke-opacity:1"
         id="path110"
         inkscape:connector-curvature="0" /><path
         d="M 581.5,680 615,673.5"
         style="fill:none;stroke:#000000;stroke-width:2.5;stroke-linecap:butt;stroke-linejoin:miter;stroke-miterlimit:3.79999995;stroke-dasharray:none;stroke-opacity:1"
         id="path112"
         inkscape:connector-curvature="0" /><g
         id="g114"
         transform="scale(10)"><text
   transform="matrix(1,0,0,-1,229.3,32.2648)"
   style="font-variant:normal;font-weight:normal;font-size:7px;font-family:Helvetica;-inkscape-font-specification:Helvetica;writing-mode:lr-tb;fill:#000000;fill-opacity:1;fill-rule:nonzero;stroke:none"
   id="text118"><tspan
     x="0 2.3310001 6.223 8.1689997 12.061 15.953"
     y="0"
     sodipodi:role="line"
     id="tspan116">-0.004</tspan></text>




</g><path
         d="M 2344.5,415.5 2311,422"
         style="fill:none;stroke:#000000;stroke-width:2.5;stroke-linecap:butt;stroke-linejoin:miter;stroke-miterlimit:3.79999995;stroke-dasharray:none;stroke-opacity:1"
         id="path120"
         inkscape:connector-curvature="0" /><path
         d="m 678,735 33.5,-6.5"
         style="fill:none;stroke:#000000;stroke-width:2.5;stroke-linecap:butt;stroke-linejoin:miter;stroke-miterlimit:3.79999995;stroke-dasharray:none;stroke-opacity:1"
         id="path122"
         inkscape:connector-curvature="0" /><g
         id="g124"
         transform="scale(10)"><text
   transform="matrix(1,0,0,-1,238.9,37.7648)"
   style="font-variant:normal;font-weight:normal;font-size:7px;font-family:Helvetica;-inkscape-font-specification:Helvetica;writing-mode:lr-tb;fill:#000000;fill-opacity:1;fill-rule:nonzero;stroke:none"
   id="text128"><tspan
     x="0 2.3310001 6.223 8.1689997 12.061 15.953"
     y="0"
     sodipodi:role="line"
     id="tspan126">-0.003</tspan></text>




</g><path
         d="m 2441,471 -33.5,6"
         style="fill:none;stroke:#000000;stroke-width:2.5;stroke-linecap:butt;stroke-linejoin:miter;stroke-miterlimit:3.79999995;stroke-dasharray:none;stroke-opacity:1"
         id="path130"
         inkscape:connector-curvature="0" /><path
         d="M 774,790.5 807.5,784"
         style="fill:none;stroke:#000000;stroke-width:2.5;stroke-linecap:butt;stroke-linejoin:miter;stroke-miterlimit:3.79999995;stroke-dasharray:none;stroke-opacity:1"
         id="path132"
         inkscape:connector-curvature="0" /><g
         id="g134"
         transform="scale(10)"><text
   transform="matrix(1,0,0,-1,248.55,43.3148)"
   style="font-variant:normal;font-weight:normal;font-size:7px;font-family:Helvetica;-inkscape-font-specification:Helvetica;writing-mode:lr-tb;fill:#000000;fill-opacity:1;fill-rule:nonzero;stroke:none"
   id="text138"><tspan
     x="0 2.3310001 6.223 8.1689997 12.061 15.953"
     y="0"
     sodipodi:role="line"
     id="tspan136">-0.002</tspan></text>




</g><path
         d="m 2537,526 -33.5,6.5"
         style="fill:none;stroke:#000000;stroke-width:2.5;stroke-linecap:butt;stroke-linejoin:miter;stroke-miterlimit:3.79999995;stroke-dasharray:none;stroke-opacity:1"
         id="path140"
         inkscape:connector-curvature="0" /><path
         d="M 870.5,846 904,839.5"
         style="fill:none;stroke:#000000;stroke-width:2.5;stroke-linecap:butt;stroke-linejoin:miter;stroke-miterlimit:3.79999995;stroke-dasharray:none;stroke-opacity:1"
         id="path142"
         inkscape:connector-curvature="0" /><g
         id="g144"
         transform="scale(10)"><text
   transform="matrix(1,0,0,-1,258.15,48.8648)"
   style="font-variant:normal;font-weight:normal;font-size:7px;font-family:Helvetica;-inkscape-font-specification:Helvetica;writing-mode:lr-tb;fill:#000000;fill-opacity:1;fill-rule:nonzero;stroke:none"
   id="text148"><tspan
     x="0 2.3310001 6.223 8.1689997 12.061 15.953"
     y="0"
     sodipodi:role="line"
     id="tspan146">-0.001</tspan></text>




</g><path
         d="M 2633.5,581.5 2600,588"
         style="fill:none;stroke:#000000;stroke-width:2.5;stroke-linecap:butt;stroke-linejoin:miter;stroke-miterlimit:3.79999995;stroke-dasharray:none;stroke-opacity:1"
         id="path150"
         inkscape:connector-curvature="0" /><path
         d="M 966.5,901.5 1000,895"
         style="fill:none;stroke:#000000;stroke-width:2.5;stroke-linecap:butt;stroke-linejoin:miter;stroke-miterlimit:3.79999995;stroke-dasharray:none;stroke-opacity:1"
         id="path152"
         inkscape:connector-curvature="0" /><g
         id="g154"
         transform="scale(10)"><text
   transform="matrix(1,0,0,-1,269.746,54.4148)"
   style="font-variant:normal;font-weight:normal;font-size:7px;font-family:Helvetica;-inkscape-font-specification:Helvetica;writing-mode:lr-tb;fill:#000000;fill-opacity:1;fill-rule:nonzero;stroke:none"
   id="text158"><tspan
     x="0"
     y="0"
     id="tspan156">0</tspan></text>




</g><path
         d="m 2729.5,637 -33.5,6.5"
         style="fill:none;stroke:#000000;stroke-width:2.5;stroke-linecap:butt;stroke-linejoin:miter;stroke-miterlimit:3.79999995;stroke-dasharray:none;stroke-opacity:1"
         id="path160"
         inkscape:connector-curvature="0" /><path
         d="m 1063,956.5 33.5,-6"
         style="fill:none;stroke:#000000;stroke-width:2.5;stroke-linecap:butt;stroke-linejoin:miter;stroke-miterlimit:3.79999995;stroke-dasharray:none;stroke-opacity:1"
         id="path162"
         inkscape:connector-curvature="0" /><g
         id="g164"
         transform="scale(10)"><text
   transform="matrix(1,0,0,-1,279.346,59.9148)"
   style="font-variant:normal;font-weight:normal;font-size:7px;font-family:Helvetica;-inkscape-font-specification:Helvetica;writing-mode:lr-tb;fill:#000000;fill-opacity:1;fill-rule:nonzero;stroke:none"
   id="text168"><tspan
     x="0 3.892 5.8379998 9.7299995 13.622"
     y="0"
     sodipodi:role="line"
     id="tspan166">0.001</tspan></text>




</g><path
         d="m 2826,692.5 -33.5,6"
         style="fill:none;stroke:#000000;stroke-width:2.5;stroke-linecap:butt;stroke-linejoin:miter;stroke-miterlimit:3.79999995;stroke-dasharray:none;stroke-opacity:1"
         id="path170"
         inkscape:connector-curvature="0" /><path
         d="m 1159,1012 33.5,-6.5"
         style="fill:none;stroke:#000000;stroke-width:2.5;stroke-linecap:butt;stroke-linejoin:miter;stroke-miterlimit:3.79999995;stroke-dasharray:none;stroke-opacity:1"
         id="path172"
         inkscape:connector-curvature="0" /><g
         id="g174"
         transform="scale(10)"><text
   transform="matrix(1,0,0,-1,288.996,65.4648)"
   style="font-variant:normal;font-weight:normal;font-size:7px;font-family:Helvetica;-inkscape-font-specification:Helvetica;writing-mode:lr-tb;fill:#000000;fill-opacity:1;fill-rule:nonzero;stroke:none"
   id="text178"><tspan
     x="0 3.892 5.8379998 9.7299995 13.622"
     y="0"
     sodipodi:role="line"
     id="tspan176">0.002</tspan></text>




</g><path
         d="m 2922,747.5 -33.5,6.5"
         style="fill:none;stroke:#000000;stroke-width:2.5;stroke-linecap:butt;stroke-linejoin:miter;stroke-miterlimit:3.79999995;stroke-dasharray:none;stroke-opacity:1"
         id="path180"
         inkscape:connector-curvature="0" /><path
         d="M 1255.5,1067.5 1289,1061"
         style="fill:none;stroke:#000000;stroke-width:2.5;stroke-linecap:butt;stroke-linejoin:miter;stroke-miterlimit:3.79999995;stroke-dasharray:none;stroke-opacity:1"
         id="path182"
         inkscape:connector-curvature="0" /><g
         id="g184"
         transform="scale(10)"><text
   transform="matrix(1,0,0,-1,298.596,71.0148)"
   style="font-variant:normal;font-weight:normal;font-size:7px;font-family:Helvetica;-inkscape-font-specification:Helvetica;writing-mode:lr-tb;fill:#000000;fill-opacity:1;fill-rule:nonzero;stroke:none"
   id="text188"><tspan
     x="0 3.892 5.8379998 9.7299995 13.622"
     y="0"
     sodipodi:role="line"
     id="tspan186">0.003</tspan></text>




</g><path
         d="m 3018.5,803 -33.5,6.5"
         style="fill:none;stroke:#000000;stroke-width:2.5;stroke-linecap:butt;stroke-linejoin:miter;stroke-miterlimit:3.79999995;stroke-dasharray:none;stroke-opacity:1"
         id="path190"
         inkscape:connector-curvature="0" /><path
         d="m 1351.5,1123 33.5,-6.5"
         style="fill:none;stroke:#000000;stroke-width:2.5;stroke-linecap:butt;stroke-linejoin:miter;stroke-miterlimit:3.79999995;stroke-dasharray:none;stroke-opacity:1"
         id="path192"
         inkscape:connector-curvature="0" /><g
         id="g194"
         transform="scale(10)"><text
   transform="matrix(1,0,0,-1,308.246,76.5648)"
   style="font-variant:normal;font-weight:normal;font-size:7px;font-family:Helvetica;-inkscape-font-specification:Helvetica;writing-mode:lr-tb;fill:#000000;fill-opacity:1;fill-rule:nonzero;stroke:none"
   id="text198"><tspan
     x="0 3.892 5.8379998 9.7299995 13.622"
     y="0"
     sodipodi:role="line"
     id="tspan196">0.004</tspan></text>




</g><path
         d="M 3114.5,858.5 3081,865"
         style="fill:none;stroke:#000000;stroke-width:2.5;stroke-linecap:butt;stroke-linejoin:miter;stroke-miterlimit:3.79999995;stroke-dasharray:none;stroke-opacity:1"
         id="path200"
         inkscape:connector-curvature="0" /><path
         d="m 1448,1178 33.5,-6"
         style="fill:none;stroke:#000000;stroke-width:2.5;stroke-linecap:butt;stroke-linejoin:miter;stroke-miterlimit:3.79999995;stroke-dasharray:none;stroke-opacity:1"
         id="path202"
         inkscape:connector-curvature="0" /><g
         id="g204"
         transform="scale(10)"><text
   transform="matrix(1,0,0,-1,317.846,82.0648)"
   style="font-variant:normal;font-weight:normal;font-size:7px;font-family:Helvetica;-inkscape-font-specification:Helvetica;writing-mode:lr-tb;fill:#000000;fill-opacity:1;fill-rule:nonzero;stroke:none"
   id="text208"><tspan
     x="0 3.892 5.8379998 9.7299995 13.622"
     y="0"
     sodipodi:role="line"
     id="tspan206">0.005</tspan></text>




</g><path
         d="M 485.5,993.5 H 517"
         style="fill:none;stroke:#000000;stroke-width:2.5;stroke-linecap:butt;stroke-linejoin:miter;stroke-miterlimit:3.79999995;stroke-dasharray:none;stroke-opacity:1"
         id="path210"
         inkscape:connector-curvature="0" /><g
         id="g212"
         transform="scale(10)"><text
   transform="matrix(1,0,0,-1,18.5145,97.0148)"
   style="font-variant:normal;font-weight:normal;font-size:7px;font-family:Helvetica;-inkscape-font-specification:Helvetica;writing-mode:lr-tb;fill:#000000;fill-opacity:1;fill-rule:nonzero;stroke:none"
   id="text216"><tspan
     x="0 2.3310001 6.223 8.1689997 12.061 15.953 19.844999"
     y="0"
     sodipodi:role="line"
     id="tspan214">-0.0015</tspan></text>




</g><path
         d="M 485.5,1141.5 H 517"
         style="fill:none;stroke:#000000;stroke-width:2.5;stroke-linecap:butt;stroke-linejoin:miter;stroke-miterlimit:3.79999995;stroke-dasharray:none;stroke-opacity:1"
         id="path218"
         inkscape:connector-curvature="0" /><g
         id="g220"
         transform="scale(10)"><text
   transform="matrix(1,0,0,-1,22.4063,111.815)"
   style="font-variant:normal;font-weight:normal;font-size:7px;font-family:Helvetica;-inkscape-font-specification:Helvetica;writing-mode:lr-tb;fill:#000000;fill-opacity:1;fill-rule:nonzero;stroke:none"
   id="text224"><tspan
     x="0 2.3310001 6.223 8.1689997 12.061 15.953"
     y="0"
     sodipodi:role="line"
     id="tspan222">-0.001</tspan></text>




</g><path
         d="M 485.5,1289 H 517"
         style="fill:none;stroke:#000000;stroke-width:2.5;stroke-linecap:butt;stroke-linejoin:miter;stroke-miterlimit:3.79999995;stroke-dasharray:none;stroke-opacity:1"
         id="path226"
         inkscape:connector-curvature="0" /><g
         id="g228"
         transform="scale(10)"><text
   transform="matrix(1,0,0,-1,18.5145,126.565)"
   style="font-variant:normal;font-weight:normal;font-size:7px;font-family:Helvetica;-inkscape-font-specification:Helvetica;writing-mode:lr-tb;fill:#000000;fill-opacity:1;fill-rule:nonzero;stroke:none"
   id="text232"><tspan
     x="0 2.3310001 6.223 8.1689997 12.061 15.953 19.844999"
     y="0"
     sodipodi:role="line"
     id="tspan230">-0.0005</tspan></text>




</g><path
         d="M 485.5,1436 H 517"
         style="fill:none;stroke:#000000;stroke-width:2.5;stroke-linecap:butt;stroke-linejoin:miter;stroke-miterlimit:3.79999995;stroke-dasharray:none;stroke-opacity:1"
         id="path234"
         inkscape:connector-curvature="0" /><g
         id="g236"
         transform="scale(10)"><text
   transform="matrix(1,0,0,-1,38.3585,141.265)"
   style="font-variant:normal;font-weight:normal;font-size:7px;font-family:Helvetica;-inkscape-font-specification:Helvetica;writing-mode:lr-tb;fill:#000000;fill-opacity:1;fill-rule:nonzero;stroke:none"
   id="text240"><tspan
     x="0"
     y="0"
     id="tspan238">0</tspan></text>




</g><path
         d="M 485.5,1584 H 517"
         style="fill:none;stroke:#000000;stroke-width:2.5;stroke-linecap:butt;stroke-linejoin:miter;stroke-miterlimit:3.79999995;stroke-dasharray:none;stroke-opacity:1"
         id="path242"
         inkscape:connector-curvature="0" /><g
         id="g244"
         transform="scale(10)"><text
   transform="matrix(1,0,0,-1,20.8456,156.065)"
   style="font-variant:normal;font-weight:normal;font-size:7px;font-family:Helvetica;-inkscape-font-specification:Helvetica;writing-mode:lr-tb;fill:#000000;fill-opacity:1;fill-rule:nonzero;stroke:none"
   id="text248"><tspan
     x="0 3.892 5.8379998 9.7299995 13.622 17.514"
     y="0"
     sodipodi:role="line"
     id="tspan246">0.0005</tspan></text>




</g><path
         d="M 485.5,1731.5 H 517"
         style="fill:none;stroke:#000000;stroke-width:2.5;stroke-linecap:butt;stroke-linejoin:miter;stroke-miterlimit:3.79999995;stroke-dasharray:none;stroke-opacity:1"
         id="path250"
         inkscape:connector-curvature="0" /><g
         id="g252"
         transform="scale(10)"><text
   transform="matrix(1,0,0,-1,24.7374,170.815)"
   style="font-variant:normal;font-weight:normal;font-size:7px;font-family:Helvetica;-inkscape-font-specification:Helvetica;writing-mode:lr-tb;fill:#000000;fill-opacity:1;fill-rule:nonzero;stroke:none"
   id="text258"><tspan
     x="0 3.892 5.8379998 9.7299995 13.622"
     y="0"
     sodipodi:role="line"
     id="tspan254">0.001</tspan><tspan
     x="238.604 241.089 244.981 247.312 251.20399 252.758 254.70399 256.64999 260.54199 264.43399 266.38 268.86499 270.811 274.703 276.64899 280.54099 282.487 286.379 288.32501"
     y="-61.6852"
     sodipodi:role="line"
     id="tspan256">&quot;orbit.dat&quot; u 2:4:6</tspan></text>




</g><path
         d="m 1126.5,1948 23,12.5 23.5,11.5 24,10.5 24.5,9 25,8 25,7 25.5,5.5 26,4.5 26,3 27,2 27,0.5 27.5,-0.5 28,-2 28.5,-3.5 29,-4.5 29.5,-5.5 30,-7 30.5,-8.5 31,-9 32,-10.5 32,-11.5 32.5,-13 33,-13.5 33.5,-14.5 33.5,-16 34,-16.5 34.5,-17 34,-18.5 34.5,-19 34.5,-20 34.5,-20 34,-21.5 34,-21.5 33,-22 33,-22.5 32.5,-23.5 31.5,-23 30.5,-24 29.5,-24 29,-24 27.5,-24.5 26,-24 25,-24.5 23,-24.5 22,-24 20,-24 18.5,-24 16.5,-23.5 14.5,-23.5 12.5,-23 10.5,-22.5 8,-22 6.5,-21 3.5,-20.5 1.5,-20.5 -0.5,-19.5 -3,-18.5 -5.5,-18 -8,-17.5 -10.5,-16 -12.5,-15.5 -15,-14.5 -17.5,-13.5 -19.5,-12.5 -22,-11.5 -24,-10.5 -26,-9 -28.5,-8 -30.5,-7.5 -32,-5.5 -34,-5 -36,-3.5 -37.5,-2.5 -38.5,-1.5 h -40.5 l -41.5,1 -42.5,2.5 -44,3.5 -44.5,4.5 -45,5.5 -45.5,6.5 -46.5,8 -46,9 -46.5,10 -46.5,11 -46.5,12 -46,13 -45.5,14 -45,14.5 -44,16 -43,16.5 -42.5,17 -41,18 -39.5,19 -38,19.5 -36.5,20 -35,20.5 -33,20.5 -31,22 -29,22 -27,22.5 -25,23 -22.5,23 -20.5,23.5 -18,23.5 -15.5,23.5 -13,24 -11,24 -8.5,23.5 -6,24 -3.5,23.5 -1,24 1,23 3,23 5.5,23 7.5,22 9,22 11.5,21.5 12.5,21 14.5,20 16,20 17,19 18.5,18 19.5,17.5 20,16.5 21.5,15.5 22,14.5 22.5,14"
         style="fill:none;stroke:#000000;stroke-width:2.5;stroke-linecap:butt;stroke-linejoin:miter;stroke-miterlimit:3.79999995;stroke-dasharray:none;stroke-opacity:1"
         id="path260"
         inkscape:connector-curvature="0" /><path
         d="M 3211.5,2348 H 3411"
         style="fill:none;stroke:#000000;stroke-width:2.5;stroke-linecap:butt;stroke-linejoin:miter;stroke-miterlimit:3.79999995;stroke-dasharray:none;stroke-opacity:1"
         id="path262"
         inkscape:connector-curvature="0" /><path
         d="M 3114.5,858.5 2152,304.5"
         style="fill:none;stroke:#000000;stroke-width:2.5;stroke-linecap:butt;stroke-linejoin:miter;stroke-miterlimit:3.79999995;stroke-dasharray:none;stroke-opacity:1"
         id="path264"
         inkscape:connector-curvature="0" /><path
         d="M 485.5,624.5 2152,304.5"
         style="fill:none;stroke:#000000;stroke-width:2.5;stroke-linecap:butt;stroke-linejoin:miter;stroke-miterlimit:3.79999995;stroke-dasharray:none;stroke-opacity:1"
         id="path266"
         inkscape:connector-curvature="0" /><g
         id="g268"
         transform="scale(10)"><text
   transform="matrix(1,0,0,-1,106.958,33.0148)"
   style="font-variant:normal;font-weight:normal;font-size:7px;font-family:Helvetica;-inkscape-font-specification:Helvetica;writing-mode:lr-tb;fill:#000000;fill-opacity:1;fill-rule:nonzero;stroke:none"
   id="text276"><tspan
     x="0 3.892 7.3920002"
     y="0"
     sodipodi:role="line"
     id="tspan270">$x$</tspan><tspan
     x="184.2 188.092 191.592"
     y="-16.4"
     sodipodi:role="line"
     id="tspan272">$y$</tspan><tspan
     x="-93.449997 -89.557999 -86.057999"
     y="-100.9"
     sodipodi:role="line"
     id="tspan274">$z$</tspan></text>




</g></g><path
       style="opacity:0.98000004;fill:#009000;fill-opacity:1;stroke:#0000ff;stroke-width:0;stroke-miterlimit:4;stroke-dasharray:0,0;stroke-dashoffset:0;stroke-opacity:0.56470588"
       id="path1083"
       transform="scale(1,-1)"
       sodipodi:type="arc"
       sodipodi:cx="103.62904"
       sodipodi:cy="-188.30646"
       sodipodi:rx="2.8225808"
       sodipodi:ry="3.3602149"
       sodipodi:start="4.957695"
       sodipodi:end="4.2437332"
       sodipodi:open="true"
       d="m 104.31452,-191.56608 a 2.8225808,3.3602149 0 0 1 2.13081,3.48397 2.8225808,3.3602149 0 0 1 -2.50173,3.11494 2.8225808,3.3602149 0 0 1 -3.01914,-2.37789 2.8225808,3.3602149 0 0 1 1.42966,-3.9593" /><path
       style="opacity:0.98000004;fill:#009000;fill-opacity:1;stroke:#0000ff;stroke-width:0;stroke-miterlimit:4;stroke-dasharray:0,0;stroke-dashoffset:0;stroke-opacity:0.56470588"
       id="path1085"
       transform="scale(1,-1)"
       sodipodi:type="arc"
       sodipodi:cx="185.48387"
       sodipodi:cy="-189.11292"
       sodipodi:rx="2.1505377"
       sodipodi:ry="3.3602149"
       sodipodi:start="4.957695"
       sodipodi:end="4.2437332"
       sodipodi:open="true"
       d="m 186.00614,-192.37254 a 2.1505377,3.3602149 0 0 1 1.62347,3.48397 2.1505377,3.3602149 0 0 1 -1.90608,3.11494 2.1505377,3.3602149 0 0 1 -2.3003,-2.37789 2.1505377,3.3602149 0 0 1 1.08927,-3.9593" /><path
       style="opacity:0.98000004;fill:#009000;fill-opacity:1;stroke:#0000ff;stroke-width:0;stroke-miterlimit:4;stroke-dasharray:0,0;stroke-dashoffset:0;stroke-opacity:0.56470588"
       id="path1087"
       transform="scale(1,-1)"
       sodipodi:type="arc"
       sodipodi:cx="253.2258"
       sodipodi:cy="-114.78496"
       sodipodi:rx="2.4193549"
       sodipodi:ry="4.032258"
       sodipodi:start="4.957695"
       sodipodi:end="4.2437332"
       sodipodi:open="true"
       d="m 253.81335,-118.6965 a 2.4193549,4.032258 0 0 1 1.82641,4.18076 2.4193549,4.032258 0 0 1 -2.14434,3.73792 2.4193549,4.032258 0 0 1 -2.58784,-2.85347 2.4193549,4.032258 0 0 1 1.22543,-4.75115" /><path
       style="opacity:0.98000004;fill:#009000;fill-opacity:1;stroke:#0000ff;stroke-width:0;stroke-miterlimit:4;stroke-dasharray:0,0;stroke-dashoffset:0;stroke-opacity:0.56470588"
       id="path1089"
       transform="scale(1,-1)"
       sodipodi:type="arc"
       sodipodi:cx="112.09678"
       sodipodi:cy="-132.7957"
       sodipodi:rx="2.9569893"
       sodipodi:ry="3.4946237"
       sodipodi:start="4.957695"
       sodipodi:end="4.2437332"
       sodipodi:open="true"
       d="m 112.81489,-136.18571 a 2.9569893,3.4946237 0 0 1 2.23228,3.62333 2.9569893,3.4946237 0 0 1 -2.62086,3.23954 2.9569893,3.4946237 0 0 1 -3.16291,-2.47301 2.9569893,3.4946237 0 0 1 1.49774,-4.11767" /><g
       id="g1236"
       transform="matrix(1,0,0,-1,-63,351.7848)"><g
         word-spacing="normal"
         letter-spacing="normal"
         font-size-adjust="none"
         font-stretch="normal"
         font-weight="normal"
         font-variant="normal"
         font-style="normal"
         stroke-miterlimit="10.433"
         xml:space="preserve"
         transform="matrix(0.48,0,0,-0.48,-84,360)"
         id="content"
         style="font-style:normal;font-variant:normal;font-weight:normal;font-stretch:normal;letter-spacing:normal;word-spacing:normal;text-anchor:start;fill:none;fill-opacity:1;fill-rule:evenodd;stroke:#000000;stroke-linecap:butt;stroke-linejoin:miter;stroke-miterlimit:10.43299961;stroke-dasharray:none;stroke-dashoffset:0;stroke-opacity:1"><path
           id="path1231"
           d="m 474.05,422.43 0.02,0.03 0.02,0.02 0.02,0.02 0.02,0.02 0.02,0.03 0.02,0.02 0.01,0.02 0.02,0.02 0.02,0.02 0.01,0.02 0.03,0.04 0.03,0.03 0.02,0.04 0.03,0.03 0.02,0.03 0.02,0.03 0.01,0.03 0.02,0.03 0.01,0.03 0.02,0.02 0.01,0.02 0.01,0.03 0.01,0.02 v 0.02 l 0.01,0.02 0.01,0.02 v 0.01 0.02 l 0.01,0.02 v 0.01 0.01 0.02 0.01 0.01 0.01 0.01 0.01 c 0,0.25 -0.2,0.5 -0.34,0.7 l -10.22,14.75 h 11.5 c 8.42,0 10.92,-1.79 11.97,-9.67 h 1.23 l -1.39,11.22 H 459.6 c -1.19,0 -1.28,0 -1.28,-1.16 l 12.4,-18.03 -11.86,-13.5 c -0.5,-0.54 -0.5,-0.64 -0.5,-0.79 0,-0.55 0.5,-0.55 1.24,-0.55 h 27.65 l 1.39,11.76 h -1.23 c -0.91,-8.32 -4.3,-9.67 -12.11,-9.67 h -13.75 z"
           inkscape:connector-curvature="0"
           style="fill:#000000;stroke-width:0" /><path
           id="path1233"
           d="m 503.19,420.92 v 0.04 0.04 0.05 0.04 0.03 0.04 0.04 0.03 l -0.01,0.04 v 0.03 0.03 0.03 0.03 l -0.01,0.03 v 0.03 0.02 l -0.01,0.03 v 0.02 l -0.01,0.03 v 0.02 l -0.02,0.04 -0.01,0.04 -0.02,0.03 -0.02,0.03 -0.02,0.03 -0.02,0.03 -0.03,0.02 -0.03,0.02 -0.03,0.02 -0.04,0.01 -0.04,0.01 -0.05,0.02 h -0.02 -0.02 l -0.03,0.01 h -0.03 l -0.02,0.01 h -0.03 -0.03 -0.03 -0.03 l -0.04,0.01 h -0.03 -0.04 -0.03 -0.04 -0.04 -0.04 -0.04 -0.05 -0.04 -0.05 c -2.23,-2.2 -5.39,-2.23 -6.82,-2.23 v -1.25 c 0.84,0 3.14,0 5.04,0.97 v -17.77 c 0,-1.16 0,-1.61 -3.48,-1.61 h -1.31 v -1.25 c 0.62,0.03 4.9,0.14 6.2,0.14 1.08,0 5.47,-0.11 6.23,-0.14 v 1.25 h -1.32 c -3.49,0 -3.49,0.45 -3.49,1.61 z"
           inkscape:connector-curvature="0"
           style="fill:#000000;stroke-width:0" /></g></g><g
       id="g1454"
       transform="matrix(1,0,0,-1,47.043012,367.88962)"><g
         word-spacing="normal"
         letter-spacing="normal"
         font-size-adjust="none"
         font-stretch="normal"
         font-weight="normal"
         font-variant="normal"
         font-style="normal"
         stroke-miterlimit="10.433"
         xml:space="preserve"
         transform="matrix(0.48,0,0,-0.48,-84,360)"
         id="g1452"
         style="font-style:normal;font-variant:normal;font-weight:normal;font-stretch:normal;letter-spacing:normal;word-spacing:normal;text-anchor:start;fill:none;fill-opacity:1;fill-rule:evenodd;stroke:#000000;stroke-linecap:butt;stroke-linejoin:miter;stroke-miterlimit:10.43299961;stroke-dasharray:none;stroke-dashoffset:0;stroke-opacity:1"><path
           id="path1448"
           d="m 474.05,422.43 0.02,0.03 0.02,0.02 0.02,0.02 0.02,0.02 0.02,0.03 0.02,0.02 0.01,0.02 0.02,0.02 0.02,0.02 0.01,0.02 0.03,0.04 0.03,0.03 0.02,0.04 0.03,0.03 0.02,0.03 0.02,0.03 0.01,0.03 0.02,0.03 0.01,0.03 0.02,0.02 0.01,0.02 0.01,0.03 0.01,0.02 v 0.02 l 0.01,0.02 0.01,0.02 v 0.01 0.02 l 0.01,0.02 v 0.01 0.01 0.02 0.01 0.01 0.01 0.01 0.01 c 0,0.25 -0.2,0.5 -0.34,0.7 l -10.22,14.75 h 11.5 c 8.42,0 10.92,-1.79 11.97,-9.67 h 1.23 l -1.39,11.22 H 459.6 c -1.19,0 -1.28,0 -1.28,-1.16 l 12.4,-18.03 -11.86,-13.5 c -0.5,-0.54 -0.5,-0.64 -0.5,-0.79 0,-0.55 0.5,-0.55 1.24,-0.55 h 27.65 l 1.39,11.76 h -1.23 c -0.91,-8.32 -4.3,-9.67 -12.11,-9.67 h -13.75 z"
           inkscape:connector-curvature="0"
           style="fill:#000000;stroke-width:0" /><path
           id="path1450"
           d="m 501.04,410.4 h 0.25 l 0.25,-0.02 0.24,-0.03 0.24,-0.04 0.23,-0.05 0.23,-0.06 0.22,-0.07 0.21,-0.08 0.21,-0.1 0.2,-0.1 0.2,-0.12 0.19,-0.12 0.18,-0.14 0.17,-0.15 0.17,-0.16 0.16,-0.17 0.15,-0.18 0.14,-0.19 0.14,-0.2 0.13,-0.22 0.11,-0.22 0.11,-0.24 0.1,-0.24 0.09,-0.26 0.08,-0.27 0.07,-0.28 0.06,-0.29 0.05,-0.3 0.04,-0.31 0.02,-0.32 0.02,-0.33 0.01,-0.35 c 0,-4.33 -2.52,-5.61 -4.53,-5.61 -1.39,0 -4.47,0.38 -5.93,2.44 1.63,0.06 2.02,1.22 2.02,1.95 0,1.11 -0.84,1.91 -1.92,1.91 -0.97,0 -1.96,-0.59 -1.96,-2.02 0,-3.28 3.63,-5.4 7.85,-5.4 4.84,0 8.19,3.25 8.19,6.73 0,2.72 -2.22,5.44 -6.07,6.24 3.66,1.33 4.99,3.93 4.99,6.06 0,2.75 -3.17,4.81 -7.03,4.81 -3.88,0 -6.83,-1.89 -6.83,-4.67 0,-1.19 0.76,-1.84 1.81,-1.84 1.08,0 1.77,0.79 1.77,1.76 0,1.02 -0.69,1.75 -1.77,1.81 1.22,1.55 3.61,1.93 4.91,1.93 1.56,0 3.76,-0.77 3.76,-3.8 0,-1.47 -0.48,-3.06 -1.39,-4.14 -1.15,-1.33 -2.12,-1.41 -3.87,-1.5 -0.88,-0.08 -0.94,-0.08 -1.11,-0.11 -0.08,0 -0.36,-0.06 -0.36,-0.45 0,-0.49 0.31,-0.49 0.9,-0.49 z"
           inkscape:connector-curvature="0"
           style="fill:#000000;stroke-width:0" /></g></g><g
       id="g1616"
       transform="matrix(1,0,0,-1,126,269.2848)"><g
         word-spacing="normal"
         letter-spacing="normal"
         font-size-adjust="none"
         font-stretch="normal"
         font-weight="normal"
         font-variant="normal"
         font-style="normal"
         stroke-miterlimit="10.433"
         xml:space="preserve"
         transform="matrix(0.48,0,0,-0.48,-84,360)"
         id="g1614"
         style="font-style:normal;font-variant:normal;font-weight:normal;font-stretch:normal;letter-spacing:normal;word-spacing:normal;text-anchor:start;fill:none;fill-opacity:1;fill-rule:evenodd;stroke:#000000;stroke-linecap:butt;stroke-linejoin:miter;stroke-miterlimit:10.43299961;stroke-dasharray:none;stroke-dashoffset:0;stroke-opacity:1"><path
           id="path1610"
           d="m 474.05,422.43 0.02,0.03 0.02,0.02 0.02,0.02 0.02,0.02 0.02,0.03 0.02,0.02 0.01,0.02 0.02,0.02 0.02,0.02 0.01,0.02 0.03,0.04 0.03,0.03 0.02,0.04 0.03,0.03 0.02,0.03 0.02,0.03 0.01,0.03 0.02,0.03 0.01,0.03 0.02,0.02 0.01,0.02 0.01,0.03 0.01,0.02 v 0.02 l 0.01,0.02 0.01,0.02 v 0.01 0.02 l 0.01,0.02 v 0.01 0.01 0.02 0.01 0.01 0.01 0.01 0.01 c 0,0.25 -0.2,0.5 -0.34,0.7 l -10.22,14.75 h 11.5 c 8.42,0 10.92,-1.79 11.97,-9.67 h 1.23 l -1.39,11.22 H 459.6 c -1.19,0 -1.28,0 -1.28,-1.16 l 12.4,-18.03 -11.86,-13.5 c -0.5,-0.54 -0.5,-0.64 -0.5,-0.79 0,-0.55 0.5,-0.55 1.24,-0.55 h 27.65 l 1.39,11.76 h -1.23 c -0.91,-8.32 -4.3,-9.67 -12.11,-9.67 h -13.75 z"
           inkscape:connector-curvature="0"
           style="fill:#000000;stroke-width:0" /><path
           id="path1612"
           d="m 509.11,405.11 h -1.18 c -0.1,-0.77 -0.46,-2.83 -0.91,-3.18 -0.27,-0.2 -2.95,-0.2 -3.44,-0.2 h -6.42 c 3.66,3.23 4.88,4.2 6.97,5.84 2.58,2.07 4.98,4.22 4.98,7.54 0,4.21 -3.68,6.79 -8.15,6.79 -4.32,0 -7.25,-3.03 -7.25,-6.23 0,-1.78 1.5,-1.96 1.86,-1.96 0.82,0 1.84,0.6 1.84,1.85 0,0.62 -0.25,1.84 -2.06,1.84 1.08,2.47 3.45,3.24 5.09,3.24 3.49,0 5.3,-2.71 5.3,-5.53 0,-3.04 -2.16,-5.44 -3.28,-6.69 l -8.39,-8.3 c -0.36,-0.31 -0.36,-0.39 -0.36,-1.36 h 14.36 z"
           inkscape:connector-curvature="0"
           style="fill:#000000;stroke-width:0" /></g></g><g
       id="g1782"
       transform="matrix(1,0,0,-1,-52.5,276.7848)"><g
         word-spacing="normal"
         letter-spacing="normal"
         font-size-adjust="none"
         font-stretch="normal"
         font-weight="normal"
         font-variant="normal"
         font-style="normal"
         stroke-miterlimit="10.433"
         xml:space="preserve"
         transform="matrix(0.48,0,0,-0.48,-84,360)"
         id="g1780"
         style="font-style:normal;font-variant:normal;font-weight:normal;font-stretch:normal;letter-spacing:normal;word-spacing:normal;text-anchor:start;fill:none;fill-opacity:1;fill-rule:evenodd;stroke:#000000;stroke-linecap:butt;stroke-linejoin:miter;stroke-miterlimit:10.43299961;stroke-dasharray:none;stroke-dashoffset:0;stroke-opacity:1"><path
           id="path1776"
           d="m 474.05,422.43 0.02,0.03 0.02,0.02 0.02,0.02 0.02,0.02 0.02,0.03 0.02,0.02 0.01,0.02 0.02,0.02 0.02,0.02 0.01,0.02 0.03,0.04 0.03,0.03 0.02,0.04 0.03,0.03 0.02,0.03 0.02,0.03 0.01,0.03 0.02,0.03 0.01,0.03 0.02,0.02 0.01,0.02 0.01,0.03 0.01,0.02 v 0.02 l 0.01,0.02 0.01,0.02 v 0.01 0.02 l 0.01,0.02 v 0.01 0.01 0.02 0.01 0.01 0.01 0.01 0.01 c 0,0.25 -0.2,0.5 -0.34,0.7 l -10.22,14.75 h 11.5 c 8.42,0 10.92,-1.79 11.97,-9.67 h 1.23 l -1.39,11.22 H 459.6 c -1.19,0 -1.28,0 -1.28,-1.16 l 12.4,-18.03 -11.86,-13.5 c -0.5,-0.54 -0.5,-0.64 -0.5,-0.79 0,-0.55 0.5,-0.55 1.24,-0.55 h 27.65 l 1.39,11.76 h -1.23 c -0.91,-8.32 -4.3,-9.67 -12.11,-9.67 h -13.75 z"
           inkscape:connector-curvature="0"
           style="fill:#000000;stroke-width:0" /><path
           id="path1778"
           d="m 509.96,404.48 v 1.25 h -3.88 v 15.55 c 0,0.72 0,0.97 -0.76,0.97 -0.43,0 -0.57,0 -0.91,-0.49 l -11.53,-16.03 v -1.25 h 10.25 l 0.23,1.25 h -9.2 l 9.2,12.75 v -12.75 l -0.23,-1.25 v -2.86 c 0,-1.19 0,-1.61 -2.83,-1.61 h -0.94 v -1.25 c 1.74,0.06 3.97,0.14 5.22,0.14 1.3,0 3.52,-0.08 5.27,-0.14 v 1.25 h -0.94 c -2.83,0 -2.83,0.42 -2.83,1.61 v 2.86 z"
           inkscape:connector-curvature="0"
           style="fill:#000000;stroke-width:0" /></g></g></g></svg>